<svg xmlns="http://www.w3.org/2000/svg" viewBox="0 0 200 60">
  <path d="M20 10 C20 5, 40 5, 40 10 L40 50 C40 55, 20 55, 20 50 Z" fill="#3498db"/>
  <circle cx="30" cy="30" r="10" fill="white"/>
  <circle cx="30" cy="30" r="5" fill="#3498db"/>
  <path d="M60 20 L60 40 L65 40 L65 33 L70 33 L70 40 L75 40 L75 20 L70 20 L70 28 L65 28 L65 20 Z" fill="#333"/>
  <path d="M80 20 L80 40 L95 40 L95 35 L85 35 L85 32 L92 32 L92 28 L85 28 L85 25 L95 25 L95 20 Z" fill="#333"/>
  <path d="M100 20 L100 40 L105 40 L105 20 Z" fill="#333"/>
  <path d="M110 20 L110 40 L115 40 L115 30 L120 38 L122 38 L127 30 L127 40 L132 40 L132 20 L127 20 L121 30 L115 20 Z" fill="#333"/>
  <path d="M135 30 A10 10 0 1 0 155 30 A10 10 0 1 0 135 30 M140 30 A5 5 0 1 1 150 30 A5 5 0 1 1 140 30" fill="#333"/>
</svg>
